<svg width="42" height="42" viewBox="0 0 42 42" fill="none" xmlns="http://www.w3.org/2000/svg">
<g clip-path="url(#clip0_2042_77)">
<path d="M14.3501 42C18.2141 42 21.3502 38.864 21.3502 35V27.9999H14.3501C10.4861 27.9999 7.34998 31.136 7.34998 35C7.34998 38.864 10.4861 42 14.3501 42Z" fill="url(#paint0_linear_2042_77)"/>
<path d="M7.34998 21C7.34998 17.136 10.4861 13.9999 14.3501 13.9999H21.3502V27.9998H14.3501C10.4861 28 7.34998 24.864 7.34998 21Z" fill="url(#paint1_linear_2042_77)"/>
<path d="M7.34998 7.00005C7.34998 3.13605 10.4861 0 14.3501 0H21.3502V13.9999H14.3501C10.4861 13.9999 7.34998 10.8641 7.34998 7.00005Z" fill="url(#paint2_linear_2042_77)"/>
<path d="M21.3497 0H28.3498C32.2139 0 35.3499 3.13605 35.3499 7.00005C35.3499 10.8641 32.2139 13.9999 28.3498 13.9999H21.3497V0Z" fill="url(#paint3_linear_2042_77)"/>
<path d="M35.3499 21C35.3499 24.864 32.2139 28 28.3498 28C24.4858 28 21.3497 24.864 21.3497 21C21.3497 17.136 24.4858 13.9999 28.3498 13.9999C32.2139 13.9999 35.3499 17.136 35.3499 21Z" fill="url(#paint4_linear_2042_77)"/>
</g>
<defs>
<linearGradient id="paint0_linear_2042_77" x1="14.3501" y1="27.9999" x2="14.3501" y2="42" gradientUnits="userSpaceOnUse">
<stop stop-color="white"/>
<stop offset="1" stop-color="white" stop-opacity="0.18"/>
</linearGradient>
<linearGradient id="paint1_linear_2042_77" x1="14.3501" y1="13.9999" x2="14.3501" y2="27.9998" gradientUnits="userSpaceOnUse">
<stop stop-color="white"/>
<stop offset="1" stop-color="white" stop-opacity="0.18"/>
</linearGradient>
<linearGradient id="paint2_linear_2042_77" x1="14.3501" y1="0" x2="14.3501" y2="13.9999" gradientUnits="userSpaceOnUse">
<stop stop-color="white"/>
<stop offset="1" stop-color="white" stop-opacity="0.18"/>
</linearGradient>
<linearGradient id="paint3_linear_2042_77" x1="28.3498" y1="0" x2="28.3498" y2="13.9999" gradientUnits="userSpaceOnUse">
<stop stop-color="white"/>
<stop offset="1" stop-color="white" stop-opacity="0.18"/>
</linearGradient>
<linearGradient id="paint4_linear_2042_77" x1="28.3498" y1="13.9999" x2="28.3498" y2="28" gradientUnits="userSpaceOnUse">
<stop stop-color="white"/>
<stop offset="1" stop-color="white" stop-opacity="0.18"/>
</linearGradient>
<clipPath id="clip0_2042_77">
<rect width="42" height="42" fill="white"/>
</clipPath>
</defs>
</svg>
