<svg width="42" height="42" viewBox="0 0 42 42" fill="none" xmlns="http://www.w3.org/2000/svg">
<path d="M36.9725 9.95335L22.488 1.55171C21.5755 1.03196 20.3802 1.03196 19.4604 1.55171L4.86281 9.95335C3.92142 10.4951 3.28125 11.5133 3.28125 12.6023V29.3833C3.28125 30.4723 3.93488 31.4908 4.87659 32.0355L8.72517 34.23C10.5715 35.1396 11.0831 35.1396 11.9231 35.1396C14.6577 35.1396 16.0778 33.4861 16.0778 30.6023V14.0352C16.0781 13.8013 16.2241 13.4531 15.9941 13.4531H14.1494C13.9158 13.4531 13.4531 13.8013 13.4531 14.0349V30.6019C13.4531 31.8803 12.2666 33.1524 10.1056 32.0719L6.12806 29.7708C5.98959 29.6953 5.90625 29.5434 5.90625 29.3833V12.6023C5.90625 12.4441 6.05817 12.2853 6.19861 12.2043L20.7601 3.81708C20.8316 3.7791 20.9113 3.75924 20.9923 3.75924C21.0732 3.75924 21.153 3.7791 21.2244 3.81708L35.6498 12.2023C35.7879 12.2853 35.766 12.4392 35.766 12.6023V29.3833C35.766 29.5434 35.7961 29.6993 35.66 29.7764L21.1788 38.1685C21.0548 38.243 20.8934 38.243 20.7572 38.1685L17.0438 35.954C16.9319 35.889 16.797 35.8657 16.6894 35.9258C15.6575 36.5108 15.4658 36.5886 14.4979 36.9242C14.2593 37.0073 13.9076 37.1513 14.6317 37.5572L19.4873 40.4296C19.9509 40.6974 20.4768 40.8384 21.0121 40.8384C21.5496 40.8393 22.0777 40.6983 22.5432 40.4296L36.9728 32.0355C37.9148 31.4869 38.391 30.4723 38.391 29.3833V12.6023C38.3906 11.5133 37.9145 10.4977 36.9725 9.95335V9.95335ZM25.5042 26.7241C21.6562 26.7241 20.809 25.6627 20.5265 23.7494C20.493 23.5433 20.3185 23.2969 20.1085 23.2969H18.2283C17.9957 23.2969 17.8083 23.5791 17.8083 23.8107C17.8083 26.2605 19.1405 29.2287 25.5042 29.2287C30.1104 29.2287 32.7518 27.4388 32.7518 24.2711C32.7518 21.1303 30.6298 20.306 26.1624 19.7147C21.6467 19.1179 21.188 18.8163 21.188 17.7585C21.188 16.8863 21.5765 15.7231 24.9201 15.7231C27.9074 15.7231 29.0085 16.3643 29.4617 18.378C29.5007 18.5673 29.6737 18.7031 29.8689 18.7031H31.7569C31.8731 18.7031 31.9837 18.6562 32.065 18.5732C32.1441 18.4839 32.1855 18.3721 32.1753 18.252C31.8823 14.784 29.5788 13.168 24.9198 13.168C20.7749 13.168 18.3028 14.9182 18.3028 17.852C18.3028 21.0341 20.7628 21.9135 24.7413 22.3069C29.5007 22.7735 29.8709 23.4691 29.8709 24.4053C29.8709 26.0315 28.5656 26.7241 25.5042 26.7241Z" fill="url(#paint0_linear_2042_92)"/>
<defs>
<linearGradient id="paint0_linear_2042_92" x1="20.8361" y1="1.1619" x2="20.8361" y2="40.8384" gradientUnits="userSpaceOnUse">
<stop stop-color="white"/>
<stop offset="1" stop-color="white" stop-opacity="0.18"/>
</linearGradient>
</defs>
</svg>
