<svg width="48" height="42" viewBox="0 0 48 42" fill="none" xmlns="http://www.w3.org/2000/svg">
<path d="M24.0181 16.8729C26.2697 16.8729 28.106 18.7072 28.106 21C28.106 23.1836 26.2697 25.0397 24.0181 25.0397C21.7664 25.0397 19.9302 23.1836 19.9302 21C19.9302 18.7072 21.7664 16.8729 24.0181 16.8729ZM13.8967 38.469C15.2739 39.2988 18.2906 38.0323 21.7664 34.7568C20.6297 33.4685 19.5148 32.071 18.4655 30.608C16.7039 30.4396 14.9526 30.1771 13.219 29.8218C12.1041 34.4948 12.5195 37.7047 13.8967 38.469ZM15.4488 25.935L14.8148 24.8213C14.5743 25.4546 14.3339 26.0878 14.1809 26.6993C14.7711 26.8303 15.4269 26.9395 16.1046 27.0486L15.4488 25.935ZM29.7455 24.2754L31.5162 21L29.7455 17.7246C29.0897 16.5672 28.3902 15.5409 27.7562 14.5146C26.5757 14.4491 25.3297 14.4491 24.0181 14.4491C22.7064 14.4491 21.4604 14.4491 20.2799 14.5146C19.646 15.5409 18.9464 16.5672 18.2906 17.7246L16.5199 21L18.2906 24.2754C18.9464 25.4328 19.646 26.4591 20.2799 27.4854C21.4604 27.5509 22.7064 27.5509 24.0181 27.5509C25.3297 27.5509 26.5757 27.5509 27.7562 27.4854C28.3902 26.4591 29.0897 25.4328 29.7455 24.2754ZM24.0181 9.60147C23.6027 10.0819 23.1655 10.5841 22.7283 11.1737H25.3078C24.8706 10.5841 24.4334 10.0819 24.0181 9.60147ZM24.0181 32.3985C24.4334 31.9181 24.8706 31.4159 25.3078 30.8263H22.7283C23.1655 31.4159 23.6027 31.9181 24.0181 32.3985ZM34.1176 3.53099C32.7623 2.70122 29.7455 3.96772 26.2697 7.24316C27.4064 8.5315 28.5213 9.92902 29.5706 11.392C31.3632 11.5667 33.1339 11.8288 34.8171 12.1782C35.932 7.50519 35.5167 4.29526 34.1176 3.53099ZM32.5874 16.065L33.2213 17.1787C33.4618 16.5454 33.7023 15.9122 33.8553 15.3007C33.265 15.1697 32.6092 15.0605 31.9316 14.9514L32.5874 16.065ZM35.7571 0.670445C38.9706 2.50469 39.3204 7.3305 37.965 12.9643C43.5176 14.602 47.5181 17.3097 47.5181 21C47.5181 24.6903 43.5176 27.398 37.965 29.0357C39.3204 34.6695 38.9706 39.4953 35.7571 41.3296C32.5655 43.1638 28.2153 41.0675 24.0181 37.0715C19.8209 41.0675 15.4706 43.1638 12.2571 41.3296C9.06551 39.4953 8.71574 34.6695 10.0711 29.0357C4.51853 27.398 0.518066 24.6903 0.518066 21C0.518066 17.3097 4.51853 14.602 10.0711 12.9643C8.71574 7.3305 9.06551 2.50469 12.2571 0.670445C15.4706 -1.1638 19.8209 0.93248 24.0181 4.92851C28.2153 0.93248 32.5655 -1.1638 35.7571 0.670445ZM35.1232 21C35.8664 22.6377 36.5223 24.2754 37.0688 25.935C41.6595 24.5593 44.239 22.594 44.239 21C44.239 19.406 41.6595 17.4407 37.0688 16.065C36.5223 17.7246 35.8664 19.3623 35.1232 21ZM12.913 21C12.1697 19.3623 11.5139 17.7246 10.9674 16.065C6.37667 17.4407 3.79714 19.406 3.79714 21C3.79714 22.594 6.37667 24.5593 10.9674 25.935C11.5139 24.2754 12.1697 22.6377 12.913 21ZM32.5874 25.935L31.9316 27.0486C32.6092 26.9395 33.265 26.8303 33.8553 26.6993C33.7023 26.0878 33.4618 25.4546 33.2213 24.8213L32.5874 25.935ZM26.2697 34.7568C29.7455 38.0323 32.7623 39.2988 34.1176 38.469C35.5167 37.7047 35.932 34.4948 34.8171 29.8218C33.1339 30.1712 31.3632 30.4333 29.5706 30.608C28.5213 32.071 27.4064 33.4685 26.2697 34.7568ZM15.4488 16.065L16.1046 14.9514C15.4269 15.0605 14.7711 15.1697 14.1809 15.3007C14.3339 15.9122 14.5743 16.5454 14.8148 17.1787L15.4488 16.065ZM21.7664 7.24316C18.2906 3.96772 15.2739 2.70122 13.8967 3.53099C12.5195 4.29526 12.1041 7.50519 13.219 12.1782C14.9526 11.8229 16.7039 11.5604 18.4655 11.392C19.5148 9.92902 20.6297 8.5315 21.7664 7.24316Z" fill="url(#paint0_linear_14_62)"/>
<defs>
<linearGradient id="paint0_linear_14_62" x1="24.0181" y1="0" x2="24.0181" y2="42" gradientUnits="userSpaceOnUse">
<stop stop-color="#FDFDFD"/>
<stop offset="1" stop-color="white" stop-opacity="0.18"/>
</linearGradient>
</defs>
</svg>
