<svg width="38" height="42" viewBox="0 0 38 42" fill="none" xmlns="http://www.w3.org/2000/svg">
<path d="M0.518066 0L3.884 37.7874L18.9971 42L34.15 37.7727L37.5181 0H0.518066ZM30.5236 8.6583L29.4016 21.2457L29.4058 21.315L29.4016 21.4704L28.6032 30.2694L28.517 31.0527L19.0181 33.6777L19.0097 33.6861L9.52959 31.0443L8.88666 23.7678H13.5343L13.8641 27.468L19.0181 28.8645L24.1888 27.4491L24.7351 21.4242H13.9272L13.8347 20.4057L13.6225 18.0201L13.5132 16.7391H25.149L25.5734 12.0519H7.84453L7.75208 11.0334L7.54197 8.6457L7.43062 7.3647H30.6349L30.5236 8.6583Z" fill="url(#paint0_linear_14_61)"/>
<defs>
<linearGradient id="paint0_linear_14_61" x1="19.0181" y1="0" x2="19.0181" y2="42" gradientUnits="userSpaceOnUse">
<stop stop-color="#FDFDFD"/>
<stop offset="1" stop-color="white" stop-opacity="0.18"/>
</linearGradient>
</defs>
</svg>
