<svg width="57" height="54" viewBox="0 0 57 54" fill="none" xmlns="http://www.w3.org/2000/svg">
<g clip-path="url(#clip0_2012_26)">
<path d="M22.5625 44.3077C25.8417 44.3077 28.5 41.7247 28.5 38.5385V32.7692H22.5625C19.2833 32.7692 16.625 35.3522 16.625 38.5385C16.625 41.7247 19.2833 44.3077 22.5625 44.3077Z" fill="#0ACF83"/>
<path d="M16.625 27C16.625 23.8137 19.2833 21.2308 22.5625 21.2308H28.5V32.7692H22.5625C19.2833 32.7692 16.625 30.1863 16.625 27Z" fill="#A259FF"/>
<path d="M16.625 15.4616C16.625 12.2753 19.2833 9.69232 22.5625 9.69232H28.5V21.2308H22.5625C19.2833 21.2308 16.625 18.6478 16.625 15.4616Z" fill="#F24E1E"/>
<path d="M28.5 9.69232H34.4375C37.7167 9.69232 40.375 12.2753 40.375 15.4616C40.375 18.6478 37.7167 21.2308 34.4375 21.2308H28.5V9.69232Z" fill="#FF7262"/>
<path d="M40.375 27C40.375 30.1863 37.7167 32.7692 34.4375 32.7692C31.1583 32.7692 28.5 30.1863 28.5 27C28.5 23.8137 31.1583 21.2308 34.4375 21.2308C37.7167 21.2308 40.375 23.8137 40.375 27Z" fill="#1ABCFE"/>
</g>
<defs>
<clipPath id="clip0_2012_26">
<rect width="57" height="54" fill="white"/>
</clipPath>
</defs>
</svg>
