<?xml version="1.0" encoding="UTF-8" standalone="no"?>
<svg
   version="1.0"
   width="1007.7922pt"
   height="331.10001pt"
   viewBox="0 0 1007.7922 331.10001"
   preserveAspectRatio="xMidYMid meet"
   id="svg58"
   sodipodi:docname="79b981fa16ad1bd11b2772fa2c3350c1.svg"
   xmlns:inkscape="http://www.inkscape.org/namespaces/inkscape"
   xmlns:sodipodi="http://sodipodi.sourceforge.net/DTD/sodipodi-0.dtd"
   xmlns="http://www.w3.org/2000/svg"
   xmlns:svg="http://www.w3.org/2000/svg">
  <defs
     id="defs62" />
  <sodipodi:namedview
     id="namedview60"
     pagecolor="#ffffff"
     bordercolor="#666666"
     borderopacity="1.0"
     inkscape:pageshadow="2"
     inkscape:pageopacity="0.0"
     inkscape:pagecheckerboard="0"
     inkscape:document-units="pt" />
  <metadata
     id="metadata2">
Created by potrace 1.16, written by Peter Selinger 2001-2019
</metadata>
  <g
     transform="matrix(0.1,0,0,-0.1,-26.207811,401.9)"
     fill="#000000"
     stroke="none"
     id="g56">
    <path
       d="m 5376,4000 c -48,-24 -83,-56 -102,-92 -19,-38 -14,-37 137,12 68,22 133,41 146,42 13,2 23,6 23,10 0,4 8,8 18,9 9,0 42,9 72,19 l 55,19 h -155 c -134,0 -160,-2 -194,-19 z"
       id="path4" />
    <path
       d="m 877,3902 c -44,-48 -72,-187 -43,-211 26,-21 49,-6 43,28 -5,24 -2,30 15,35 12,3 27,1 34,-5 28,-23 124,19 124,54 0,5 -9,-2 -21,-17 -28,-35 -34,-33 -34,11 0,32 -4,39 -23,41 -28,4 -58,-20 -66,-54 -5,-17 -13,-24 -31,-24 -33,0 -32,11 10,66 19,25 35,51 35,57 0,7 -11,-6 -25,-28 -13,-22 -25,-34 -25,-27 0,17 30,75 44,84 7,5 5,8 -5,8 -9,0 -23,-8 -32,-18 z"
       id="path6" />
    <path
       d="m 1175,3896 c -9,-13 -24,-48 -34,-77 -12,-32 -26,-55 -36,-57 -17,-4 -16,6 2,56 3,7 -3,12 -16,12 -12,0 -21,6 -21,15 0,8 -7,15 -15,15 -22,0 -18,-31 4,-37 17,-4 18,-9 9,-28 -18,-39 -4,-55 44,-52 38,3 43,6 46,29 3,27 38,66 49,55 3,-4 -3,-18 -15,-30 l -22,-24 20,-18 c 17,-15 24,-16 45,-7 17,8 25,8 25,1 0,-6 10,-9 23,-7 17,2 24,-4 32,-27 14,-42 49,-42 53,0 4,34 21,49 39,34 6,-6 21,-8 33,-4 31,10 24,-8 -11,-28 -32,-18 -35,-40 -5,-45 20,-4 56,24 56,44 0,7 12,22 28,34 21,17 22,19 4,10 -21,-10 -22,-9 -16,15 10,41 10,58 -2,62 -6,2 -16,-15 -23,-37 -16,-55 -44,-55 -35,0 4,24 3,40 -3,40 -6,0 -17,-18 -26,-40 -11,-29 -21,-40 -36,-40 -28,0 -27,27 2,59 12,14 15,20 6,13 -14,-10 -16,-9 -12,11 5,26 42,78 43,59 0,-7 -5,-23 -11,-35 -10,-21 -10,-22 6,-2 19,24 16,49 -7,53 -21,4 -46,-33 -68,-101 -11,-33 -23,-53 -35,-56 -15,-2 -17,1 -11,20 12,39 12,52 -1,56 -7,3 -16,-9 -20,-28 -11,-39 -37,-59 -55,-41 -9,9 -7,17 12,37 l 23,25 -24,9 c -16,6 -29,5 -38,-3 -8,-6 -4,9 9,34 23,44 42,43 20,-2 -11,-22 -10,-22 4,-4 9,11 16,28 16,38 0,26 -36,23 -55,-6 z"
       id="path8" />
    <path
       d="m 9007,3884 c -8,-9 -10,-164 -1,-164 3,0 19,9 35,21 l 29,20 29,-20 c 16,-12 32,-21 35,-21 4,0 6,37 4,83 l -3,82 -60,3 c -34,2 -64,0 -68,-4 z"
       id="path10" />
    <path
       d="m 4690,3346 c 0,-8 -11,-27 -25,-42 -17,-18 -25,-39 -26,-65 -1,-37 -4,-56 -9,-61 -6,-8 -11,-47 -10,-75 0,-23 -5,-33 -20,-38 -11,-4 -18,-10 -15,-15 3,-5 -3,-11 -13,-14 -19,-6 -28,-46 -11,-46 15,0 6,-65 -8,-66 -24,-3 -25,-4 -13,-19 10,-12 10,-15 -1,-15 -11,0 -11,-2 1,-10 11,-7 12,-12 3,-21 -15,-15 -33,-3 -33,22 0,10 -4,19 -10,19 -19,0 26,-262 69,-403 33,-107 102,-270 138,-329 24,-39 43,-49 43,-23 0,21 43,40 64,28 15,-8 14,-12 -8,-36 -14,-15 -32,-27 -41,-27 -8,0 -15,-7 -15,-16 0,-21 113,-191 197,-296 125,-156 371,-393 389,-375 2,2 -2,10 -11,17 -8,7 -15,21 -15,31 0,10 -9,19 -22,21 -12,2 -23,9 -26,17 -3,8 0,11 7,7 6,-4 11,-3 11,2 0,5 -11,10 -25,10 -40,-1 -65,28 -58,66 3,17 10,33 15,34 15,6 8,21 -13,27 -34,11 -59,38 -59,62 0,25 19,30 38,11 9,-9 18,-9 37,0 36,17 75,15 96,-4 10,-9 23,-13 28,-9 19,11 12,25 -14,25 -16,0 -25,6 -25,15 0,8 9,15 20,15 12,0 24,10 30,24 12,32 63,40 95,14 13,-10 28,-18 34,-18 6,0 17,-11 23,-25 7,-16 17,-24 26,-20 7,3 17,5 21,5 4,0 13,11 19,25 10,21 18,25 49,24 21,-1 64,4 96,11 31,7 60,11 63,8 8,-9 8,-41 -1,-62 -7,-16 -6,-17 13,-7 11,6 33,11 47,11 h 27 l -8,83 c -4,45 -8,105 -8,132 -2,55 -25,155 -37,155 -17,0 -13,-46 6,-62 19,-17 19,-17 1,-18 -26,0 -106,67 -106,89 0,23 -26,46 -35,31 -3,-5 -15,-10 -26,-10 -19,0 -19,-1 -5,-22 20,-28 21,-126 2,-153 -19,-28 -29,-82 -17,-90 18,-10 13,-39 -9,-53 -22,-14 -25,-9 -10,19 7,13 7,19 0,19 -5,0 -10,-5 -10,-11 0,-18 -30,-41 -46,-35 -8,3 -25,1 -36,-5 -18,-10 -20,-9 -15,5 4,9 2,16 -3,16 -6,0 -10,-4 -10,-10 0,-15 -27,-12 -44,5 -8,8 -26,15 -39,15 -14,0 -30,7 -37,15 -7,8 -25,15 -40,15 -14,0 -30,3 -34,8 -4,4 -12,8 -17,8 -5,1 -14,2 -19,3 -6,0 -10,7 -9,14 4,19 -12,81 -23,88 -5,4 -4,12 5,20 7,8 19,24 25,36 11,20 8,19 -48,-8 -58,-28 -101,-37 -99,-21 0,4 27,24 60,45 45,30 59,44 59,63 0,25 -14,32 -25,13 -4,-6 -26,-9 -49,-8 -23,2 -48,-1 -55,-5 -7,-5 -18,-3 -23,2 -16,16 5,59 52,110 22,24 40,47 40,51 0,5 6,14 14,20 8,7 18,26 21,42 11,49 33,36 28,-16 -6,-50 15,-135 34,-135 21,0 25,19 9,42 -20,28 -20,57 -1,64 8,4 15,10 15,15 0,5 -7,9 -15,9 -23,0 -18,39 10,72 29,34 31,53 10,75 -9,8 -19,28 -22,44 -5,25 -9,27 -35,22 -21,-4 -33,-1 -43,13 -13,18 -14,17 -15,-13 0,-18 4,-33 9,-33 17,0 22,-38 11,-82 -14,-53 -36,-78 -67,-78 -12,0 -23,-6 -23,-13 0,-20 -47,-60 -64,-54 -18,7 -42,-19 -52,-56 -6,-27 -5,-28 14,-16 17,10 23,10 37,-5 13,-13 15,-20 6,-29 -6,-6 -11,-23 -11,-37 0,-30 -27,-60 -54,-60 -13,0 -16,-5 -11,-20 7,-24 -10,-27 -31,-6 -17,18 -18,48 -2,64 9,9 7,12 -9,12 -25,0 -34,18 -21,43 8,15 5,20 -11,24 -17,4 -19,8 -10,19 6,8 8,25 5,38 -3,14 -1,28 5,32 6,3 9,15 6,25 -5,20 35,142 54,165 9,11 3,22 -25,49 -40,39 -43,47 -20,66 9,7 20,24 25,36 11,30 55,51 77,37 19,-13 66,8 99,43 25,26 55,30 73,8 19,-23 34,-18 48,15 14,31 36,37 77,21 13,-5 30,-1 51,11 21,12 35,15 39,8 9,-15 35,-12 35,3 0,8 -18,33 -40,56 -45,47 -48,60 -21,85 20,18 41,15 41,-6 0,-11 29,-37 43,-38 4,0 -6,26 -22,58 -49,95 -57,127 -41,157 21,40 42,30 74,-35 16,-33 32,-60 37,-60 13,0 11,37 -3,60 -10,15 -9,23 6,39 17,18 17,21 3,21 -9,0 -19,-5 -23,-11 -5,-8 -10,-6 -16,5 -5,9 -14,16 -20,16 -15,0 -37,31 -38,54 0,16 5,18 37,13 26,-5 42,-2 54,9 23,21 52,14 64,-14 7,-15 18,-22 37,-22 38,0 35,12 -12,45 -43,30 -46,40 -29,79 9,20 9,29 -1,41 -18,22 -880,23 -880,1 z"
       id="path12" />
    <path
       d="m 8043,3347 c 2,-6 14,-14 28,-17 17,-4 24,-13 26,-33 1,-15 -2,-27 -7,-27 -22,0 -40,14 -40,31 0,10 -6,19 -14,19 -19,0 -15,-63 7,-84 21,-22 21,-30 1,-51 -12,-11 -15,-26 -11,-50 6,-36 -15,-65 -46,-65 -9,0 -17,-6 -17,-12 0,-21 -20,14 -20,35 0,14 5,17 22,11 21,-6 21,-6 5,11 -26,25 -47,3 -47,-49 0,-22 -5,-58 -11,-80 -8,-27 -8,-41 0,-49 6,-6 11,-27 12,-46 1,-37 3,-35 13,12 8,33 45,38 53,7 6,-22 21,-24 73,-10 19,5 89,11 155,13 108,4 120,6 124,23 1,10 13,33 26,49 12,17 28,47 35,67 8,20 24,42 37,49 13,7 23,18 23,26 0,20 -18,16 -32,-7 -17,-27 -21,-27 -148,16 -10,4 -7,11 15,29 15,14 32,25 37,25 15,0 8,18 -9,24 -11,5 -22,1 -29,-9 -10,-13 -17,-14 -33,-6 -41,22 -130,-42 -162,-116 -10,-24 -23,-43 -29,-43 -16,0 -12,12 15,52 14,20 25,41 25,45 1,25 95,93 129,93 10,0 8,5 -9,13 -17,9 -28,10 -33,3 -5,-6 -6,5 -2,26 5,36 3,41 -37,74 -19,15 -131,17 -125,1 z"
       id="path14" />
    <path
       d="m 8440,3340 c -6,-11 -9,-20 -8,-21 2,0 23,-2 48,-3 37,-1 52,-8 84,-39 22,-20 45,-37 52,-37 6,0 19,16 28,35 11,22 24,35 36,35 15,0 20,7 20,25 v 25 h -125 c -114,0 -125,-2 -135,-20 z"
       id="path16" />
    <path
       d="m 10010,3251 c 0,-17 5,-33 10,-36 19,-11 11,-57 -10,-62 -22,-6 -26,-18 -9,-29 6,-3 8,-15 5,-27 -5,-22 23,-86 48,-106 9,-8 16,-23 16,-34 0,-16 3,-18 12,-9 22,22 42,13 86,-37 27,-33 42,-59 42,-78 v -28 l 18,22 c 14,19 25,22 65,20 43,-3 47,-2 47,20 0,15 -6,23 -17,24 -10,1 -29,3 -43,5 -14,2 -35,5 -48,5 -14,1 -28,11 -35,26 -16,37 1,44 63,28 30,-8 61,-15 68,-15 9,0 12,34 12,136 0,128 -1,135 -19,129 -11,-3 -44,-10 -74,-15 -31,-5 -69,-16 -86,-25 -17,-8 -31,-12 -31,-9 0,4 -9,-1 -20,-11 -18,-16 -22,-17 -35,-4 -8,8 -16,35 -17,59 -1,31 -8,51 -21,63 -26,22 -27,22 -27,-12 z"
       id="path18" />
    <path
       d="m 8810,3130 c 0,-6 12,-21 27,-34 18,-15 23,-25 15,-30 -7,-4 -12,-3 -12,2 0,15 -59,23 -81,12 -25,-14 -26,-45 -1,-35 53,22 59,18 77,-62 6,-31 5,-33 -22,-33 -24,0 -32,7 -44,32 -20,47 -41,46 -61,-2 l -17,-40 h -58 c -41,0 -54,-3 -43,-10 8,-5 34,-10 58,-10 34,0 50,-7 77,-31 19,-17 34,-34 33,-38 -1,-3 2,-14 6,-23 7,-16 10,-16 31,-2 28,18 79,9 71,-12 -3,-8 1,-14 9,-14 15,0 17,-6 19,-57 1,-21 -5,-28 -24,-33 -14,-3 -27,-14 -28,-24 -3,-14 0,-17 12,-12 9,3 23,9 31,12 8,3 15,2 15,-3 0,-15 -39,-47 -58,-48 -44,-3 -52,-6 -52,-16 0,-6 8,-8 20,-4 10,3 33,-1 50,-10 30,-15 30,-15 40,10 11,30 40,34 40,5 0,-11 4,-20 9,-20 19,0 22,21 7,45 -9,13 -16,36 -16,50 0,25 1,25 80,25 43,0 90,-5 104,-11 19,-9 29,-9 40,0 11,10 19,9 35,-1 16,-10 23,-10 33,0 8,8 8,12 1,12 -6,0 -9,9 -6,20 5,17 0,20 -27,20 -20,0 -38,-8 -48,-21 -17,-20 -52,-19 -52,2 0,5 -5,9 -11,9 -24,0 -128,43 -124,50 3,5 13,6 23,4 21,-5 66,31 57,46 -10,15 -35,12 -35,-5 0,-24 -29,-17 -42,9 -12,27 -59,51 -82,43 -23,-9 -41,20 -28,46 6,12 13,48 16,81 3,42 11,65 27,82 20,21 20,24 5,30 -9,3 -23,1 -32,-6 -11,-10 -18,-10 -26,-2 -15,15 -38,16 -38,2 z"
       id="path20" />
    <path
       d="m 9118,3113 c -20,-5 -24,-28 -8,-38 24,-15 8,-27 -26,-21 -21,4 -41,3 -49,-4 -9,-8 -20,-7 -39,1 -29,13 -49,4 -26,-12 8,-5 20,-13 25,-17 17,-12 65,-91 65,-107 0,-26 28,-16 59,22 17,21 31,42 31,48 0,5 7,19 15,29 12,16 17,17 30,6 33,-27 26,1 -9,33 -20,19 -36,42 -36,51 0,16 -2,17 -32,9 z"
       id="path22" />
    <path
       d="m 6530,2957 c -36,-11 -66,-21 -67,-22 -1,0 2,-17 7,-36 5,-18 12,-46 15,-61 4,-20 9,-25 25,-21 25,7 28,-22 5,-47 -19,-20 -20,-49 -6,-120 25,-126 26,-121 -13,-177 -20,-29 -36,-55 -36,-58 0,-14 65,-3 91,15 27,20 30,20 54,4 24,-15 25,-15 25,2 0,11 11,38 25,62 13,23 24,55 24,70 -1,15 1,86 3,159 4,125 -2,150 -22,99 -7,-16 -9,-17 -9,-4 -1,11 -6,15 -16,12 -11,-5 -15,1 -15,23 0,16 5,34 12,41 9,9 5,12 -18,12 -41,0 -46,8 -27,36 9,14 14,26 12,28 -2,2 -33,-6 -69,-17 z"
       id="path24" />
    <path
       d="m 6290,2932 c 0,-11 -12,-30 -26,-41 -20,-16 -25,-26 -20,-44 3,-13 3,-27 -1,-31 -10,-10 -11,-60 -1,-73 6,-7 7,-21 3,-33 -3,-11 -2,-20 4,-20 17,0 23,-38 9,-59 -11,-18 -8,-24 25,-57 21,-21 37,-47 37,-60 0,-12 4,-34 10,-48 8,-22 5,-28 -19,-46 -16,-11 -34,-20 -39,-20 -6,0 -19,-16 -31,-35 -24,-42 -44,-44 -76,-9 -13,14 -29,23 -34,19 -18,-11 -12,-25 15,-35 24,-9 25,-14 20,-59 -3,-26 -11,-67 -18,-90 -14,-44 -28,-50 -73,-29 -19,9 -28,9 -37,0 -20,-20 -33,-13 -51,29 -14,32 -22,40 -40,37 -22,-3 -27,-23 -5,-23 6,0 13,-6 16,-14 3,-10 0,-12 -12,-8 -13,5 -16,-1 -17,-36 -2,-124 -2,-127 23,-152 13,-13 40,-47 59,-74 31,-47 59,-66 59,-41 0,6 11,10 25,10 19,0 24,5 22,21 -3,30 30,50 46,27 14,-17 31,-21 88,-19 33,1 36,4 45,44 8,36 14,43 42,52 17,5 32,12 32,16 0,13 -30,31 -44,26 -22,-9 -51,40 -35,59 15,18 39,18 39,-1 0,-8 5,-15 10,-15 6,0 10,9 10,19 0,10 7,21 15,25 8,3 15,17 15,31 0,16 6,25 15,25 14,0 20,12 16,34 -3,15 10,46 20,46 5,0 9,-6 9,-14 0,-12 20,-26 36,-26 11,0 2,29 -12,41 -11,9 -14,23 -11,45 4,23 1,34 -9,38 -9,3 -14,-1 -14,-12 0,-29 -55,-127 -73,-130 -27,-5 -22,55 8,94 35,46 41,85 21,147 -19,63 -16,119 8,146 13,14 17,30 13,53 -2,18 2,57 9,86 15,57 17,135 5,167 -6,16 -16,19 -55,16 -26,-1 -53,3 -62,9 -11,10 -14,9 -14,-8 z"
       id="path26" />
    <path
       d="m 8448,2882 c 30,-28 32,-35 26,-69 -3,-21 -12,-50 -19,-65 -11,-23 -11,-28 0,-28 8,0 17,9 20,21 7,20 11,21 86,14 64,-6 84,-4 104,9 29,19 62,21 67,4 6,-17 28,0 28,23 0,20 -5,22 -86,19 -35,-1 -54,3 -63,14 -8,9 -22,16 -32,16 -10,0 -26,11 -34,24 -10,15 -29,26 -54,30 -22,3 -48,9 -58,13 -10,4 -4,-6 15,-25 z"
       id="path28" />
    <path
       d="m 7956,2863 c -3,-4 -6,-34 -6,-68 0,-33 -5,-66 -11,-72 -8,-8 -8,-13 0,-17 6,-4 11,-17 11,-28 0,-20 12,-65 31,-115 13,-34 24,-28 54,30 15,28 36,61 46,73 29,31 23,50 -23,76 -30,16 -50,38 -69,75 -15,28 -30,49 -33,46 z"
       id="path30" />
    <path
       d="m 7230,2796 c 0,-8 5,-18 10,-21 16,-10 1,-25 -26,-25 -14,0 -24,6 -24,14 0,13 -41,26 -86,26 -17,0 -28,-8 -34,-25 -9,-24 -30,-35 -30,-16 0,5 -8,7 -19,4 -10,-2 -24,1 -32,9 -8,7 -27,14 -43,15 -16,0 -32,7 -36,13 -6,10 -13,8 -29,-7 l -22,-20 30,-32 c 16,-17 37,-31 48,-31 27,0 44,-15 38,-32 -9,-23 11,-31 59,-24 33,5 46,13 54,31 7,14 19,25 29,25 9,0 27,10 41,22 20,19 25,21 32,8 6,-11 23,-14 72,-12 l 63,4 1,38 c 1,31 -3,39 -20,44 -39,11 -76,7 -76,-8 z"
       id="path32" />
    <path
       d="m 341,2605 -1,-70 44,-27 c 37,-24 53,-28 120,-28 83,0 163,23 136,40 -12,7 -11,10 5,15 34,11 48,21 69,48 28,38 15,42 -22,6 -18,-17 -36,-28 -43,-24 -6,4 -15,1 -20,-6 -4,-8 -26,-15 -49,-15 -38,-1 -41,1 -47,27 -3,18 -12,29 -22,28 -10,0 -11,-2 -3,-6 6,-2 12,-9 12,-14 0,-12 -29,0 -65,27 -16,12 -47,27 -67,33 -20,7 -39,17 -42,24 -2,7 -5,-19 -5,-58 z"
       id="path34" />
    <path
       d="m 8345,2652 c -27,-8 -59,-18 -70,-22 -11,-5 -28,-11 -37,-14 -13,-4 -18,-16 -18,-40 0,-19 -5,-38 -10,-41 -18,-11 -54,-89 -51,-110 2,-11 0,-17 -4,-13 -4,4 -14,1 -22,-7 -9,-10 -21,-12 -37,-6 -17,7 -25,5 -34,-10 -16,-26 -16,-28 16,-40 33,-14 111,-12 128,2 7,6 18,9 26,8 19,-3 75,22 61,28 -16,6 6,46 52,94 30,32 37,47 38,84 1,25 7,47 15,50 13,5 17,41 5,48 -5,2 -30,-3 -58,-11 z"
       id="path36" />
    <path
       d="m 8972,2579 c -7,-10 -18,-19 -26,-19 -8,0 -21,-11 -30,-25 -9,-14 -23,-25 -32,-25 -23,0 -64,-31 -64,-49 0,-9 -6,-28 -14,-43 -13,-24 -12,-28 5,-44 10,-9 19,-23 19,-30 0,-10 9,-12 30,-8 17,4 36,1 44,-5 11,-10 23,2 61,64 46,73 47,76 31,100 -20,31 -21,61 -1,69 19,7 19,22 2,29 -7,3 -19,-4 -25,-14 z"
       id="path38" />
    <path
       d="m 7313,2556 c -12,-14 -31,-26 -44,-26 -12,0 -31,-8 -42,-17 -18,-17 -19,-17 -32,0 -7,9 -25,17 -41,17 -39,0 -98,-33 -103,-56 -3,-18 -2,-18 16,-1 19,16 21,16 37,-2 22,-24 17,-55 -9,-58 -11,-1 -33,-6 -50,-11 -25,-9 -26,-10 -8,-11 41,-2 113,-25 110,-36 -2,-5 -16,-11 -30,-13 -19,-2 -27,-9 -27,-24 0,-17 4,-19 28,-14 15,4 32,14 38,22 6,7 19,14 28,14 9,0 16,4 16,9 0,6 20,13 45,17 25,3 45,10 45,15 0,16 44,27 75,18 41,-12 55,5 24,30 -19,16 -21,20 -7,21 9,0 20,-5 23,-11 18,-28 90,-69 122,-69 49,0 42,32 -8,41 -20,3 -48,17 -63,32 -18,18 -41,28 -75,33 -57,7 -76,17 -66,34 7,12 46,10 93,-5 35,-11 26,11 -10,25 -18,7 -40,22 -49,33 -15,19 -16,19 -36,-7 z"
       id="path40" />
    <path
       d="m 7580,2262 c -8,-2 -28,-10 -45,-17 -16,-7 -58,-21 -92,-31 -58,-18 -62,-21 -56,-44 3,-14 8,-29 10,-33 3,-5 6,-45 7,-90 1,-70 6,-91 34,-148 l 33,-66 -32,-52 c -29,-46 -59,-71 -46,-37 4,10 0,12 -14,9 -29,-8 -23,-26 23,-71 32,-32 45,-39 55,-31 9,8 13,8 13,1 0,-6 -4,-12 -9,-14 -4,-1 -12,-14 -16,-27 -4,-15 -3,-21 3,-17 22,13 42,-6 42,-40 0,-37 6,-40 32,-21 15,12 14,16 -13,45 -42,44 -38,72 14,105 23,15 50,26 59,23 11,-2 20,4 24,18 10,33 25,48 38,37 7,-6 39,-9 73,-8 59,1 61,2 79,37 11,19 25,40 33,46 12,9 11,12 -3,17 -19,7 -21,30 -5,55 9,14 6,30 -15,75 -23,51 -29,57 -56,57 -18,0 -30,-5 -30,-13 0,-18 21,-37 41,-37 19,0 37,-56 22,-71 -11,-11 -113,1 -113,13 0,6 10,18 23,29 l 22,18 -28,1 c -43,0 -87,36 -87,69 0,15 5,32 11,38 12,12 2,58 -17,74 -19,15 -18,58 2,80 16,18 8,29 -16,21 z"
       id="path42" />
    <path
       d="m 6758,2215 -36,-35 -9,26 c -8,23 -11,15 -27,-57 -10,-46 -20,-91 -22,-101 -5,-18 -44,-31 -68,-22 -9,3 -23,0 -32,-7 -13,-10 -17,-10 -24,0 -5,9 -16,11 -31,6 -21,-7 -21,-9 -6,-20 10,-7 15,-19 11,-29 -8,-21 5,-20 36,4 16,12 41,20 67,20 30,0 50,7 70,24 24,21 28,31 28,82 0,45 4,59 15,59 8,0 17,-10 20,-23 3,-13 17,-30 31,-39 23,-14 31,-14 58,-3 36,14 40,33 11,53 -15,10 -19,23 -17,53 3,53 -25,57 -75,9 z"
       id="path44" />
    <path
       d="m 382,2154 c -20,-14 -22,-18 -9,-33 8,-10 11,-26 7,-41 -4,-18 0,-30 15,-42 11,-10 15,-17 8,-18 -6,0 -18,7 -27,15 -8,8 -23,15 -33,15 -15,0 -20,-8 -22,-37 -7,-97 -1,-108 68,-117 34,-4 51,-14 72,-38 15,-18 31,-30 35,-25 4,4 -9,25 -30,46 -31,31 -37,43 -31,62 7,20 5,22 -6,12 -11,-9 -20,-8 -39,2 -14,8 -20,15 -15,15 6,1 -3,7 -20,15 -30,15 -30,15 23,11 40,-2 52,0 48,10 -8,21 21,24 40,3 9,-10 25,-19 34,-19 10,0 20,-9 23,-21 4,-15 11,-19 25,-14 15,4 22,0 27,-15 3,-11 11,-20 16,-20 6,0 8,4 4,9 -3,5 -1,12 5,16 6,4 8,11 5,16 -4,5 -1,9 5,9 14,0 55,38 48,45 -10,11 -48,14 -48,4 0,-5 -10,-9 -22,-10 -13,0 -17,-3 -10,-6 6,-2 12,-9 12,-14 0,-6 -4,-7 -10,-4 -5,3 -19,1 -30,-5 -25,-13 -27,-2 -2,16 16,12 16,13 0,19 -13,5 -15,12 -8,30 7,19 5,25 -9,30 -10,3 -26,2 -36,-1 -14,-6 -16,-4 -10,6 6,10 4,12 -10,7 -17,-7 -17,-6 0,19 17,26 16,26 -7,19 -12,-4 -25,-12 -26,-17 -5,-11 -32,10 -32,24 0,6 7,5 15,-2 12,-10 15,-9 15,8 0,11 -7,23 -16,26 -20,8 -16,9 -42,-10 z"
       id="path46" />
    <path
       d="m 6680,1281 c 0,-51 -23,-121 -40,-121 -18,0 -10,-29 10,-40 37,-20 19,-70 -26,-70 -12,0 -25,-7 -28,-16 -5,-13 -2,-15 16,-10 13,3 53,9 91,12 55,6 65,9 56,20 -6,8 -22,14 -35,14 -21,0 -24,5 -24,36 0,34 1,35 33,32 29,-3 32,0 35,27 2,17 7,34 12,39 12,12 -9,52 -35,66 -13,7 -29,23 -36,36 -19,37 -29,29 -29,-25 z"
       id="path48" />
    <path
       d="m 302,1272 c -33,-5 -45,-37 -38,-100 8,-69 16,-84 60,-107 20,-11 36,-26 36,-34 0,-11 12,-12 58,-7 31,3 86,8 122,11 98,8 133,15 153,32 20,19 23,66 5,80 -19,13 -85,16 -93,4 -9,-16 -42,-13 -49,4 -4,11 3,15 27,16 71,3 87,5 94,13 4,5 1,7 -7,4 -8,-3 -24,-2 -36,3 -11,4 -27,3 -34,-1 -8,-5 -19,-5 -25,-1 -5,5 -24,13 -41,18 -25,9 -33,8 -42,-6 -10,-15 -12,-15 -25,1 -9,12 -18,14 -30,7 -9,-6 -17,-8 -17,-5 0,3 -11,1 -25,-4 -20,-8 -23,-7 -18,8 4,9 11,20 17,24 14,10 -12,38 -36,38 -10,0 -16,-4 -13,-10 3,-5 2,-10 -4,-10 -5,0 -11,6 -13,13 -2,6 -13,11 -26,9 z"
       id="path50" />
    <path
       d="m 8745,1200 c -3,-5 -29,-10 -57,-10 -50,0 -50,0 -43,-27 3,-16 12,-35 20,-43 7,-8 16,-36 19,-62 4,-27 13,-49 22,-52 24,-9 26,-8 19,14 -7,23 10,50 31,50 7,0 16,-9 19,-20 9,-30 18,-25 38,22 17,42 17,43 -3,58 -10,8 -25,30 -31,48 -11,32 -23,40 -34,22 z"
       id="path52" />
    <path
       d="m 6245,984 c -186,-21 -295,-32 -490,-49 -99,-9 -195,-18 -212,-21 l -33,-5 V 808 708 l 35,6 c 19,4 47,13 62,21 15,8 34,15 42,15 7,0 60,16 117,35 57,19 108,35 115,35 6,0 25,6 42,14 52,23 128,47 185,59 28,5 52,14 52,19 0,4 7,8 15,8 8,0 49,12 92,26 43,14 83,27 88,28 6,2 21,8 35,14 l 25,11 -25,-1 c -14,0 -79,-7 -145,-14 z"
       id="path54" />
  </g>
</svg>
