<svg width="44" height="42" viewBox="0 0 44 42" fill="none" xmlns="http://www.w3.org/2000/svg">
<path d="M42.5444 19.1297L23.6135 0.794049C23.3546 0.542363 23.0469 0.342663 22.7081 0.206402C22.3692 0.0701414 22.006 0 21.6391 0C21.2723 0 20.909 0.0701414 20.5702 0.206402C20.2314 0.342663 19.9237 0.542363 19.6648 0.794049L15.733 4.60216L20.7193 9.43167C21.3073 9.23786 21.9397 9.20793 22.5444 9.34528C23.1491 9.48263 23.7018 9.78173 24.1395 10.2085C24.5773 10.6353 24.8824 11.1726 25.0202 11.7592C25.158 12.3458 25.1229 12.958 24.9189 13.5263L29.7194 18.1758C30.437 17.937 31.2173 17.9436 31.9305 18.1945C32.6436 18.4454 33.2464 18.9253 33.6386 19.5545C34.0307 20.1836 34.1884 20.9238 34.0854 21.6519C33.9824 22.3799 33.6249 23.0518 33.0726 23.5556C32.5202 24.0594 31.8063 24.3646 31.0498 24.4205C30.2932 24.4763 29.5398 24.2794 28.915 23.8625C28.2902 23.4456 27.8317 22.8339 27.616 22.1294C27.4003 21.4249 27.4404 20.67 27.7295 19.9906L23.2465 15.6485V27.0729C23.9256 27.3988 24.4689 27.9402 24.786 28.6069C25.103 29.2737 25.1747 30.0255 24.9889 30.7372C24.8032 31.4488 24.3714 32.0774 23.7653 32.5181C23.1592 32.9589 22.4156 33.1852 21.6582 33.1594C20.9007 33.1337 20.1753 32.8573 19.6027 32.3764C19.0301 31.8956 18.6448 31.2392 18.5112 30.5166C18.3775 29.7941 18.5034 29.049 18.868 28.4055C19.2326 27.7619 19.8139 27.2588 20.5149 26.9799V15.4506C20.1093 15.2894 19.7407 15.0521 19.4302 14.7523C19.1197 14.4526 18.8736 14.0963 18.7059 13.704C18.5382 13.3117 18.4523 12.8911 18.4532 12.4665C18.454 12.0419 18.5416 11.6217 18.7109 11.23L13.802 6.47247L0.820603 19.0502C0.560514 19.301 0.354135 19.5992 0.213313 19.9275C0.0724915 20.2558 0 20.6078 0 20.9633C0 21.3188 0.0724915 21.6708 0.213313 21.9991C0.354135 22.3273 0.560514 22.6255 0.820603 22.8763L19.7515 41.206C20.0104 41.4576 20.3181 41.6573 20.6569 41.7936C20.9958 41.9299 21.359 42 21.7259 42C22.0927 42 22.456 41.9299 22.7948 41.7936C23.1336 41.6573 23.4413 41.4576 23.7002 41.206L42.5444 22.9498C42.8045 22.699 43.0109 22.4008 43.1517 22.0725C43.2925 21.7442 43.365 21.3922 43.365 21.0367C43.365 20.6812 43.2925 20.3292 43.1517 20.001C43.0109 19.6727 42.8045 19.3745 42.5444 19.1237" fill="url(#paint0_linear_2042_45)"/>
<path d="M15.733 4.60217L20.7193 9.43168C21.3073 9.23787 21.9397 9.20794 22.5444 9.34529C23.1491 9.48264 23.7018 9.78174 24.1395 10.2085C24.5773 10.6353 24.8824 11.1726 25.0202 11.7592C25.158 12.3458 25.1229 12.9581 24.919 13.5263L29.7194 18.1758C30.437 17.937 31.2173 17.9436 31.9305 18.1945C32.6436 18.4454 33.2465 18.9254 33.6386 19.5545C34.0307 20.1836 34.1884 20.9238 34.0854 21.6519C33.9824 22.38 33.625 23.0518 33.0726 23.5556C32.5202 24.0594 31.8063 24.3646 31.0498 24.4205C30.2932 24.4763 29.5398 24.2794 28.915 23.8625C28.2902 23.4456 27.8317 22.8339 27.616 22.1294C27.4003 21.4249 27.4404 20.67 27.7295 19.9906L23.2465 15.6486V27.0729C23.9256 27.3988 24.469 27.9402 24.786 28.6069C25.103 29.2737 25.1747 30.0255 24.989 30.7372C24.8032 31.4488 24.3714 32.0774 23.7653 32.5181C23.1593 32.9589 22.4156 33.1852 21.6582 33.1594C20.9007 33.1337 20.1753 32.8573 19.6027 32.3764C19.0301 31.8956 18.6449 31.2392 18.5112 30.5166C18.3775 29.7941 18.5035 29.049 18.868 28.4055C19.2326 27.7619 19.8139 27.2588 20.5149 26.9799V15.4506C20.1093 15.2894 19.7407 15.0521 19.4302 14.7523C19.1197 14.4526 18.8736 14.0963 18.7059 13.704C18.5382 13.3117 18.4523 12.8911 18.4532 12.4665C18.454 12.0419 18.5416 11.6217 18.7109 11.23L13.802 6.47248" fill="black"/>
<defs>
<linearGradient id="paint0_linear_2042_45" x1="21.6825" y1="0" x2="21.6825" y2="42" gradientUnits="userSpaceOnUse">
<stop stop-color="white"/>
<stop offset="1" stop-color="white" stop-opacity="0.18"/>
</linearGradient>
</defs>
</svg>
