<svg width="42" height="42" viewBox="0 0 42 42" fill="none" xmlns="http://www.w3.org/2000/svg">
<rect width="42" height="42" fill="url(#paint0_linear_2041_36)"/>
<path fill-rule="evenodd" clip-rule="evenodd" d="M0.985132 4.71647C0 6.61293 0 9.10446 0 14.0875V27.9125C0 32.8955 0 35.3871 0.985132 37.2835C1.81529 38.8817 3.11835 40.1847 4.71647 41.0149C6.61293 42 9.10446 42 14.0875 42H15.7436C15.7466 41.6643 15.7772 38.1477 15.7666 36.3431C9.92533 37.6116 8.69289 33.5275 8.69289 33.5275C7.73761 31.1026 6.36077 30.4567 6.36077 30.4567C4.45408 29.1534 6.50516 29.1791 6.50516 29.1791C8.61296 29.3287 9.72165 31.3437 9.72165 31.3437C11.5948 34.5524 14.6373 33.6255 15.8336 33.0892C16.0244 31.7317 16.5659 30.8061 17.1666 30.2814C12.5037 29.7515 7.60096 27.9493 7.60096 19.9022C7.60096 17.6101 8.41958 15.7356 9.7629 14.2673C9.54632 13.7361 8.82567 11.6013 9.96788 8.70964C9.96788 8.70964 11.7315 8.14498 15.7434 10.8626C17.418 10.3972 19.2151 10.1638 21.0006 10.1561C22.7836 10.1638 24.5807 10.3972 26.2579 10.8626C30.2672 8.14498 32.0269 8.70964 32.0269 8.70964C33.173 11.6013 32.4524 13.7361 32.2358 14.2673C33.5817 15.7356 34.3951 17.6101 34.3951 19.9022C34.3951 27.9699 29.4847 29.7451 24.8063 30.2646C25.5604 30.9131 26.2321 32.1945 26.2321 34.1541C26.2321 36.6709 26.2558 41.6003 26.2578 42H27.9125C32.8955 42 35.3871 42 37.2835 41.0149C38.8817 40.1847 40.1847 38.8817 41.0149 37.2835C42 35.3871 42 32.8955 42 27.9125V14.0875C42 9.10446 42 6.61293 41.0149 4.71647C40.1847 3.11835 38.8817 1.81529 37.2835 0.985132C35.3871 0 32.8955 0 27.9125 0H14.0875C9.10446 0 6.61293 0 4.71647 0.985132C3.11835 1.81529 1.81529 3.11835 0.985132 4.71647Z" fill="url(#paint1_linear_2041_36)"/>
<defs>
<linearGradient id="paint0_linear_2041_36" x1="21" y1="42" x2="21" y2="0" gradientUnits="userSpaceOnUse">
<stop stop-color="white" stop-opacity="0"/>
<stop offset="1" stop-color="#999999" stop-opacity="0"/>
</linearGradient>
<linearGradient id="paint1_linear_2041_36" x1="21" y1="0" x2="21" y2="42" gradientUnits="userSpaceOnUse">
<stop stop-color="white"/>
<stop offset="1" stop-color="#666666" stop-opacity="0.18"/>
</linearGradient>
</defs>
</svg>
