<svg width="43" height="42" viewBox="0 0 43 42" fill="none" xmlns="http://www.w3.org/2000/svg">
<path d="M37.9819 0H4.98193C2.49756 0 0.481934 2.01562 0.481934 4.5V37.5C0.481934 39.9844 2.49756 42 4.98193 42H37.9819C40.4663 42 42.4819 39.9844 42.4819 37.5V4.5C42.4819 2.01562 40.4663 0 37.9819 0ZM23.3382 32.7562C23.3382 36.8438 20.9382 38.7094 17.4413 38.7094C14.2819 38.7094 12.4538 37.0781 11.5163 35.1L14.7319 33.1594C15.3507 34.2562 15.9132 35.1844 17.2726 35.1844C18.5663 35.1844 19.3913 34.6781 19.3913 32.7V19.2844H23.3382V32.7562ZM32.6757 38.7094C29.0101 38.7094 26.6382 36.9656 25.4851 34.6781L28.7007 32.8219C29.5444 34.2 30.6507 35.2219 32.5913 35.2219C34.2226 35.2219 35.2726 34.4062 35.2726 33.2719C35.2726 31.9219 34.2038 31.4437 32.3944 30.6469L31.4101 30.225C28.5601 29.0156 26.6757 27.4875 26.6757 24.2719C26.6757 21.3094 28.9351 19.0594 32.4507 19.0594C34.9632 19.0594 36.7632 19.9312 38.0569 22.2187L34.9819 24.1875C34.3069 22.9781 33.5757 22.5 32.4413 22.5C31.2882 22.5 30.5569 23.2312 30.5569 24.1875C30.5569 25.3687 31.2882 25.8469 32.9851 26.5875L33.9694 27.0094C37.3257 28.4437 39.2101 29.9156 39.2101 33.2156C39.2101 36.7594 36.4163 38.7094 32.6757 38.7094Z" fill="url(#paint0_linear_14_58)"/>
<defs>
<linearGradient id="paint0_linear_14_58" x1="21.4819" y1="0" x2="21.4819" y2="42" gradientUnits="userSpaceOnUse">
<stop stop-color="#FDFDFD"/>
<stop offset="1" stop-color="white" stop-opacity="0.18"/>
</linearGradient>
</defs>
</svg>
