<svg width="43" height="42" viewBox="0 0 43 42" fill="none" xmlns="http://www.w3.org/2000/svg">
<path d="M31.6515 39.3776C31.4953 39.4603 31.5085 39.4865 31.6581 39.4104C31.7042 39.3916 31.7465 39.3644 31.7828 39.3303C31.7828 39.3028 31.7828 39.3028 31.6515 39.3776ZM31.9665 39.2069C31.8917 39.2686 31.8917 39.2686 31.9809 39.2279C32.0139 39.2125 32.0441 39.1917 32.0702 39.1663C32.0702 39.1308 32.0492 39.1387 31.9665 39.2069ZM32.1713 39.0836C32.0964 39.1453 32.0964 39.1453 32.1857 39.1046C32.2188 39.0888 32.249 39.0675 32.2749 39.0416C32.2749 39.0088 32.2539 39.0153 32.1713 39.0836ZM32.3786 38.9615C32.3038 39.0232 32.3038 39.0232 32.3904 38.9812C32.439 38.9549 32.4797 38.9274 32.4797 38.9195C32.4797 38.8867 32.4587 38.8933 32.3786 38.9615ZM32.6582 38.7764C32.5151 38.8723 32.4652 38.9339 32.5965 38.8657C32.6844 38.8119 32.834 38.6937 32.8078 38.6937C32.7514 38.7147 32.7041 38.7502 32.6569 38.7764H32.6582ZM20.1071 0.00964711C20.0113 0.0162097 19.7239 0.0424603 19.4719 0.0634607C13.5028 0.604222 7.91833 3.81729 4.37862 8.76682C2.42249 11.4815 1.15097 14.6284 0.67224 17.9401C0.502933 19.0951 0.481934 19.4364 0.481934 21.0022C0.481934 22.5667 0.502933 22.9027 0.67224 24.0578C1.81539 31.9474 7.42747 38.5704 15.0345 41.0248C16.4034 41.4619 17.8379 41.7637 19.4719 41.9488C20.1071 42.0171 22.8541 42.0171 23.4893 41.9488C26.3138 41.6338 28.6985 40.9369 31.0583 39.7333C31.4205 39.5495 31.4888 39.5009 31.4402 39.4603C30.289 37.9385 29.1476 36.4094 28.016 34.873L24.6601 30.3408L20.4562 24.1129C19.0579 22.0276 17.6452 19.952 16.2183 17.8863C16.2039 17.8863 16.1855 20.6544 16.1776 24.0302C16.1632 29.9431 16.1632 30.1833 16.0884 30.3198C16.0166 30.4847 15.8881 30.6184 15.7261 30.6965C15.5962 30.7582 15.4794 30.7713 14.8586 30.7713H14.1486L13.9635 30.6558C13.8476 30.5815 13.7534 30.4778 13.6905 30.3553L13.6013 30.1702L13.6078 21.9393L13.6223 13.7085L13.7522 13.5444C13.8352 13.4436 13.9373 13.3601 14.0528 13.299C14.2247 13.2163 14.2929 13.2032 15.003 13.2032C15.8364 13.2032 15.9742 13.236 16.1934 13.4762C17.8963 16.0092 19.5846 18.552 21.2582 21.1046C23.9868 25.2417 27.7115 30.8868 29.5424 33.6563L32.8721 38.6951L33.0362 38.5861C34.6364 37.5227 36.0865 36.2491 37.3476 34.7995C39.9929 31.7716 41.7094 28.0453 42.2916 24.0669C42.4609 22.9119 42.4819 22.5694 42.4819 21.0048C42.4819 19.439 42.4609 19.1043 42.2916 17.9493C41.1485 10.0597 35.5364 3.43665 27.9294 0.980917C26.5077 0.530617 25.0444 0.224137 23.5615 0.0660858C23.1638 0.0253974 20.4497 -0.0231661 20.1084 0.0122722L20.1071 0.00964711ZM28.6998 12.711C28.7974 12.7589 28.8845 12.8259 28.956 12.9079C29.0274 12.99 29.0818 13.0854 29.1158 13.1887C29.1513 13.299 29.1578 15.5815 29.1513 20.7226L29.1368 28.1043L27.8388 26.1092L26.5329 24.1129V18.7538C26.5329 15.2796 26.5474 13.3318 26.5657 13.236C26.63 13.0163 26.7774 12.8303 26.9765 12.7175C27.1393 12.6348 27.2023 12.6283 27.852 12.6283C28.4596 12.6283 28.5633 12.6348 28.6998 12.711Z" fill="url(#paint0_linear_14_59)"/>
<defs>
<linearGradient id="paint0_linear_14_59" x1="21.4819" y1="0" x2="21.4819" y2="42" gradientUnits="userSpaceOnUse">
<stop stop-color="#FDFDFD"/>
<stop offset="1" stop-color="white" stop-opacity="0.18"/>
</linearGradient>
</defs>
</svg>
