<svg width="42" height="42" viewBox="0 0 42 42" fill="none" xmlns="http://www.w3.org/2000/svg">
<g clip-path="url(#clip0_2013_55)">
<path d="M20.8202 0.0118408C10.1847 0.0118408 10.8488 4.64255 10.8488 4.64255L10.8606 9.4401H21.0099V10.8805H6.82946C6.82946 10.8805 0.0238037 10.1055 0.0238037 20.8797C0.0238037 31.6543 5.96395 31.2722 5.96395 31.2722H9.509V26.2724C9.509 26.2724 9.31789 20.3084 15.3543 20.3084H25.4206C25.4206 20.3084 31.0761 20.4001 31.0761 14.8205V5.59504C31.0761 5.59504 31.9351 0.0118408 20.8202 0.0118408ZM15.2239 3.2381C15.4637 3.23788 15.7013 3.28515 15.9229 3.3772C16.1445 3.46925 16.3459 3.60427 16.5155 3.77454C16.685 3.94481 16.8195 4.14698 16.9112 4.36949C17.0029 4.592 17.05 4.83048 17.0498 5.07128C17.05 5.31207 17.0029 5.55055 16.9112 5.77306C16.8195 5.99557 16.685 6.19774 16.5155 6.36801C16.3459 6.53828 16.1445 6.6733 15.9229 6.76535C15.7013 6.8574 15.4637 6.90467 15.2239 6.90445C14.9841 6.90467 14.7466 6.8574 14.5249 6.76535C14.3033 6.6733 14.102 6.53828 13.9324 6.36801C13.7628 6.19774 13.6283 5.99557 13.5366 5.77306C13.4449 5.55055 13.3979 5.31207 13.3981 5.07128C13.3979 4.83048 13.4449 4.592 13.5366 4.36949C13.6283 4.14698 13.7628 3.94481 13.9324 3.77454C14.102 3.60427 14.3033 3.46925 14.5249 3.3772C14.7466 3.28515 14.9841 3.23788 15.2239 3.2381Z" fill="url(#paint0_linear_2013_55)"/>
<path d="M21.1222 41.856C31.7577 41.856 31.0936 37.2253 31.0936 37.2253L31.0818 32.4279H20.9323V30.9876H35.1127C35.1127 30.9876 41.9184 31.7625 41.9184 20.988C41.9184 10.2136 35.9783 10.5957 35.9783 10.5957H32.4332V15.5953C32.4332 15.5953 32.6243 21.5593 26.5879 21.5593H16.5216C16.5216 21.5593 10.8661 21.4676 10.8661 27.0473V36.273C10.8661 36.273 10.0073 41.856 21.122 41.856H21.1222ZM26.7185 38.6301C26.4786 38.6303 26.2411 38.583 26.0195 38.491C25.7979 38.3989 25.5965 38.2639 25.4269 38.0937C25.2573 37.9234 25.1228 37.7212 25.0312 37.4987C24.9395 37.2762 24.8924 37.0377 24.8926 36.7969C24.8924 36.5561 24.9394 36.3176 25.0311 36.0951C25.1228 35.8726 25.2573 35.6704 25.4268 35.5001C25.5964 35.3298 25.7978 35.1948 26.0194 35.1027C26.2411 35.0106 26.4786 34.9634 26.7185 34.9636C26.9583 34.9634 27.1958 35.0106 27.4174 35.1027C27.639 35.1947 27.8404 35.3297 28.01 35.5C28.1796 35.6703 28.3141 35.8725 28.4058 36.095C28.4974 36.3175 28.5445 36.556 28.5443 36.7968C28.5445 37.0375 28.4974 37.276 28.4058 37.4985C28.3141 37.721 28.1796 37.9232 28.01 38.0935C27.8404 38.2638 27.639 38.3988 27.4174 38.4908C27.1958 38.5829 26.9583 38.6303 26.7185 38.6301Z" fill="url(#paint1_linear_2013_55)"/>
</g>
<defs>
<linearGradient id="paint0_linear_2013_55" x1="402.63" y1="376.375" x2="2487.04" y2="2431.74" gradientUnits="userSpaceOnUse">
<stop stop-color="white" stop-opacity="0.68"/>
<stop offset="1" stop-color="#E9F5FF"/>
</linearGradient>
<linearGradient id="paint1_linear_2013_55" x1="605.113" y1="653.935" x2="2843.12" y2="2761.13" gradientUnits="userSpaceOnUse">
<stop stop-color="white" stop-opacity="0.31"/>
<stop offset="1" stop-color="white" stop-opacity="0"/>
</linearGradient>
<clipPath id="clip0_2013_55">
<rect width="42" height="42" fill="white"/>
</clipPath>
</defs>
</svg>
