<svg width="42" height="42" viewBox="0 0 42 42" fill="none" xmlns="http://www.w3.org/2000/svg">
<g clip-path="url(#clip0_2013_53)">
<path d="M0.65625 20.9705V41.4783H41.6719V0.462646H0.65625V20.9705ZM33.7083 19.3298C34.6907 19.5578 35.5835 20.0716 36.2742 20.8064C36.6545 21.2023 36.985 21.643 37.2586 22.1189C37.2586 22.1714 35.4867 23.3691 34.4072 24.0384C34.3678 24.0647 34.2103 23.8941 34.0364 23.6348C33.8393 23.2948 33.5593 23.0102 33.2225 22.8077C32.8857 22.6051 32.5031 22.4912 32.1103 22.4766C30.8667 22.3912 30.0661 23.0442 30.0727 24.1172C30.0624 24.3843 30.1235 24.6494 30.2498 24.885C30.5222 25.4526 31.0308 25.7906 32.6255 26.4797C35.5622 27.743 36.8189 28.5764 37.5998 29.7609C38.4727 31.0734 38.6663 33.1931 38.0756 34.7616C37.4194 36.4678 35.8116 37.6261 33.5377 38.01C32.4991 38.1289 31.4497 38.1179 30.4139 37.9772C28.8331 37.7207 27.3748 36.968 26.25 35.828C25.8727 35.4112 25.1377 34.3251 25.1836 34.2464C25.3034 34.1575 25.4295 34.0774 25.5609 34.0069L27.0703 33.1406L28.2483 32.4581L28.4944 32.8223C28.9097 33.4164 29.4382 33.9227 30.0497 34.312C31.3622 35.0011 33.1537 34.9059 34.0397 34.1086C34.3371 33.8164 34.5227 33.4292 34.5641 33.0143C34.6054 32.5994 34.5 32.1831 34.2661 31.838C33.938 31.3819 33.2817 30.998 31.4475 30.1973C29.3311 29.2851 28.4189 28.7208 27.5855 27.8217C27.0652 27.2284 26.681 26.5285 26.46 25.7709C26.2951 24.9055 26.2708 24.0191 26.3878 23.1459C26.8242 21.1017 28.3566 19.6744 30.5944 19.2511C31.6307 19.1229 32.6805 19.1516 33.7083 19.3364V19.3298ZM24.0811 21.0492V22.7292H18.7556V37.8984H14.9789V22.7259H9.64031V21.0853C9.62598 20.5205 9.64132 19.9554 9.68625 19.3922C9.70594 19.3659 12.9675 19.3528 16.905 19.3594H24.0614L24.0811 21.0492Z" fill="url(#paint0_linear_2013_53)"/>
</g>
<defs>
<linearGradient id="paint0_linear_2013_53" x1="21.1641" y1="0.462646" x2="21.1641" y2="41.4783" gradientUnits="userSpaceOnUse">
<stop stop-color="white"/>
<stop offset="1" stop-color="white" stop-opacity="0.18"/>
</linearGradient>
<clipPath id="clip0_2013_53">
<rect width="42" height="42" fill="white"/>
</clipPath>
</defs>
</svg>
