<svg width="42" height="42" viewBox="0 0 42 42" fill="none" xmlns="http://www.w3.org/2000/svg">
<path d="M38.5547 10.9922L38.6531 10.9265C38.4563 10.5656 38.1609 10.2375 37.8656 10.0734L22.0172 0.95155C21.7547 0.787488 21.3938 0.721863 21 0.721863C20.6062 0.721863 20.2453 0.8203 19.9828 0.95155L4.23281 10.1062C3.675 10.4344 3.28125 11.2547 3.28125 11.8781V30.1547C3.28125 30.5156 3.34687 30.9094 3.57656 31.2703L3.51094 31.3031C3.675 31.5656 3.90469 31.7953 4.13438 31.9266L19.95 41.0812C20.2125 41.2453 20.5734 41.3109 20.9672 41.3109C21.3609 41.3109 21.7219 41.2125 21.9844 41.0812L37.7344 31.9266C38.2922 31.5984 38.6859 30.7781 38.6859 30.1547V11.8453C38.7188 11.5828 38.6859 11.2875 38.5547 10.9922ZM21 29.0391C23.9859 29.0391 26.6109 27.3984 27.9891 24.9703L32.2219 27.4641C29.9906 31.3359 25.7906 33.9609 21 33.9609C13.8469 33.9609 8.03906 28.1531 8.03906 21C8.03906 13.8469 13.8469 8.03905 21 8.03905C25.8234 8.03905 30.0234 10.6969 32.2547 14.6016L27.9891 17.0625C26.6109 14.6016 23.9859 12.9609 21 12.9609C16.5703 12.9609 12.9609 16.5703 12.9609 21C12.9609 25.4297 16.5703 29.0391 21 29.0391Z" fill="url(#paint0_linear_2042_88)"/>
<defs>
<linearGradient id="paint0_linear_2042_88" x1="20.9895" y1="0.721863" x2="20.9895" y2="41.3109" gradientUnits="userSpaceOnUse">
<stop stop-color="white"/>
<stop offset="1" stop-color="white" stop-opacity="0.18"/>
</linearGradient>
</defs>
</svg>
